<svg width="128" height="128" viewBox="0 0 128 128" fill="none" xmlns="http://www.w3.org/2000/svg">
<rect width="128" height="128" fill="#1E1E1E"/>
<path d="M104 100.493C99.6936 104.199 94.8705 107.044 89.5307 109.026C84.1908 111.009 78.6571 112 72.9297 112C68.5372 112 64.2954 111.418 60.2044 110.255C56.1564 109.134 52.3453 107.539 48.7711 105.471C45.2398 103.359 42.0101 100.838 39.0818 97.9071C36.1534 94.9764 33.6342 91.7441 31.5241 88.2101C29.4571 84.633 27.8422 80.8189 26.6795 76.7677C25.5598 72.6734 25 68.4283 25 64.0323C25 59.6364 25.5598 55.3912 26.6795 51.297C27.8422 47.2027 29.4571 43.3886 31.5241 39.8545C33.6342 36.2774 36.1534 33.0236 39.0818 30.0929C42.0101 27.1623 45.2398 24.6626 48.7711 22.5939C52.3453 20.4822 56.1564 18.866 60.2044 17.7455C64.2954 16.5818 68.5372 16 72.9297 16C78.6571 16 84.1908 16.9912 89.5307 18.9737C94.8705 20.9131 99.6936 23.7576 104 27.5071L94.1815 43.6687C91.4685 40.738 88.2603 38.497 84.5568 36.9455C80.8534 35.3508 76.9776 34.5535 72.9297 34.5535C68.8386 34.5535 65.006 35.3293 61.4317 36.8808C57.8575 38.4323 54.7353 40.5441 52.0654 43.2162C49.3955 45.8451 47.2854 48.9697 45.7351 52.5899C44.1848 56.167 43.4096 59.9811 43.4096 64.0323C43.4096 68.0835 44.1848 71.8976 45.7351 75.4747C47.2854 79.0088 49.3955 82.1118 52.0654 84.7838C54.7353 87.4559 57.8575 89.5677 61.4317 91.1192C65.006 92.6707 68.8386 93.4465 72.9297 93.4465C76.9776 93.4465 80.8534 92.6707 84.5568 91.1192C88.2603 89.5246 91.4685 87.262 94.1815 84.3313L104 100.493Z" fill="white"/>
<path d="M17 56C17 54.8954 17.8954 54 19 54H45.1612C43.6241 58.6752 43.5 61 43.418 64H17V56Z" fill="#0057B7"/>
<path d="M17 64H43.4167C43.5 68.5 43.9621 70.5364 45.1484 74H19C17.8954 74 17 73.1046 17 72V64Z" fill="#FFD700"/>
</svg>
